<?xml version="1.0" standalone="no"?>
<!DOCTYPE svg PUBLIC "-//W3C//DTD SVG 20010904//EN"
 "http://www.w3.org/TR/2001/REC-SVG-20010904/DTD/svg10.dtd">
<svg version="1.0" xmlns="http://www.w3.org/2000/svg"
 width="300.000000pt" height="300.000000pt" viewBox="0 0 300.000000 300.000000"
 preserveAspectRatio="xMidYMid meet">
<metadata>
Created by potrace 1.16, written by Peter Selinger 2001-2019
</metadata>
<g transform="translate(0.000000,300.000000) scale(0.100000,-0.100000)"
fill="#000000" stroke="none">
<path d="M0 1500 l0 -1500 1500 0 1500 0 0 1500 0 1500 -1500 0 -1500 0 0
-1500z m690 440 c0 -126 3 -230 8 -230 4 0 25 5 46 11 51 14 144 -3 204 -38
24 -15 61 -48 83 -75 60 -76 70 -126 67 -324 l-3 -169 -45 -3 c-62 -5 -114 13
-136 45 -16 26 -21 84 -24 276 0 10 -13 32 -29 48 -40 40 -89 40 -133 0 l-33
-29 -5 -169 -5 -168 -95 0 -95 0 -3 515 c-1 283 0 521 3 528 3 8 33 12 100 12
l95 0 0 -230z m574 20 c27 -10 56 -56 56 -90 0 -79 -101 -128 -163 -80 -97 77
-10 215 107 170z m18 -259 l33 -29 3 -245 3 -244 -26 -31 c-33 -39 -81 -50
-123 -28 -17 9 -36 24 -41 35 -15 28 -24 457 -10 498 13 39 60 73 101 73 16 0
41 -12 60 -29z m181 18 c64 -17 77 -51 77 -199 0 -141 7 -162 66 -186 29 -12
39 -12 68 0 58 24 66 46 66 179 0 141 12 181 64 202 41 17 122 20 131 5 4 -6
6 -194 6 -418 l0 -407 -33 -65 c-55 -107 -181 -180 -291 -168 -98 11 -212 91
-252 175 -9 19 -19 59 -22 89 l-6 54 97 0 c94 0 97 -1 106 -25 29 -76 113 -99
169 -46 30 28 31 31 31 118 l0 89 -92 0 c-77 0 -100 3 -136 22 -62 33 -114 84
-142 139 -24 45 -25 59 -28 237 -2 103 -1 195 2 202 6 17 65 18 119 3z m926
-20 c98 -43 159 -120 182 -227 19 -95 -26 -221 -102 -282 -72 -57 -121 -73
-218 -68 -78 4 -91 7 -142 40 -59 38 -81 64 -119 138 -29 56 -31 173 -5 235
69 160 249 233 404 164z"/>
</g>
</svg>
