<?xml version="1.0" encoding="UTF-8" standalone="no"?>
<!-- Created with Inkscape (http://www.inkscape.org/) -->

<svg
   version="1.1"
   id="svg342"
   width="933.33331"
   height="933.33331"
   viewBox="0 0 933.33331 933.33331"
   xmlns="http://www.w3.org/2000/svg"
   xmlns:svg="http://www.w3.org/2000/svg">
   <style>
    @media (prefers-color-scheme: light) {
      :root {
	filter: invert(100%);
      }
    }
   </style>
  <defs
     id="defs346" />
  <g
     id="g348">
    <path
       style="fill:#ffffff;stroke-width:1.33333"
       d="m 472.5127,706.73209 c -19.54709,-4.28893 -36.58281,-14.06863 -50.75613,-29.13759 -11.01446,-11.71048 -16.80727,-21.22493 -21.87611,-35.93061 -4.60144,-13.34971 -6.60791,-31.14427 -3.71804,-32.97383 2.24244,-1.41969 61.26462,-1.61208 63.27129,-0.20625 0.76904,0.53877 2.11455,3.43417 2.99001,6.43424 2.22204,7.61456 6.67247,13.75837 13.38216,18.47413 4.8382,3.40042 7.24123,4.10415 15.42572,4.51744 8.3651,0.42242 10.62812,0.0167 16.49998,-2.95889 3.74285,-1.89665 8.41269,-5.55599 10.3774,-8.13185 6.3683,-8.34928 7.13822,-12.68048 7.2013,-40.51099 l 0.0585,-25.82217 -3,0.88832 c -47.49434,14.06343 -96.93106,-7.72179 -117.79969,-51.91064 -9.2663,-19.62121 -9.86993,-24.86943 -9.84656,-85.61045 0.012,-31.30671 0.5414,-53.87608 1.29131,-55.05621 1.85156,-2.91383 37.28665,-2.70098 44.11859,0.26501 7.07644,3.07213 13.99453,9.71891 17.47911,16.79359 2.97516,6.04041 3.11547,7.79745 3.75724,47.05125 l 0.66667,40.77652 4.03525,6.52156 c 5.17135,8.35768 13.83272,13.83102 23.44588,14.81606 10.3979,1.06544 17.72736,-1.37678 25.25019,-8.41349 10.07643,-9.42533 10.60201,-12.10847 10.60201,-54.12426 0,-22.1672 0.57327,-38.11535 1.50276,-41.80672 2.03847,-8.09548 11.31058,-18.2769 19.53442,-21.45011 4.98781,-1.92459 10.08176,-2.42941 24.51366,-2.42941 10.01964,0 18.71964,0.50017 19.33333,1.1115 0.61371,0.61134 1.11583,58.81134 1.11583,129.33333 V 625.4634 l -3.07088,10.60657 c -8.21774,28.38341 -26.89497,50.56489 -52.92912,62.85979 -19.76829,9.33576 -42.824,12.19766 -62.8561,7.80233 z M 124.30214,563.19673 c -2.32378,-2.32378 -2.32378,-330.4762 0,-332.79999 1.15243,-1.15243 10.24692,-1.6 32.51116,-1.6 h 30.91116 l 0.80396,3 c 0.44219,1.65 0.81218,33.79043 0.82219,71.42319 0.0172,64.52913 0.15099,68.38463 2.35153,67.74602 11.33336,-3.28905 16.22698,-3.95852 29,-3.96728 17.93714,-0.012 27.50846,2.27188 44.66667,10.65963 10.74701,5.25364 14.49741,8.03188 24.74665,18.33192 13.42892,13.49548 20.74682,25.7187 26.0487,43.50968 2.80273,9.40482 3.00116,12.9443 3.53878,63.12273 0.31327,29.23757 0.18906,55.18757 -0.27602,57.66666 l -0.84562,4.50744 -18.93957,-0.008 c -22.479,-0.009 -27.35737,-1.14588 -34.95237,-8.1467 -10.51958,-9.69604 -10.56791,-9.93447 -11.32055,-55.8453 -0.63016,-38.44001 -0.82424,-40.95869 -3.54456,-45.99999 -13.14629,-24.36286 -48.17405,-23.39316 -58.65749,1.62384 -1.40003,3.34093 -1.79795,15.34499 -1.79795,54.23809 0,43.62912 -0.26505,50.21264 -2.09524,52.04282 -1.77908,1.77908 -6.56739,2.09524 -31.73333,2.09524 -21.27407,0 -30.08963,-0.45153 -31.2381,-1.6 z m 219.03708,-0.82457 c -6.1832,-2.88976 -13.03381,-9.33833 -16.34268,-15.38359 -2.09585,-3.8291 -2.2944,-10.89274 -2.2944,-81.62973 v -77.43789 l 4.04788,-6.56211 c 4.74821,-7.69741 14.97863,-14.47882 23.58397,-15.63304 17.48134,-2.34474 33.69528,9.46164 37.01202,26.95074 1.48285,7.81902 1.90264,130.71022 0.48677,142.49898 -1.18631,9.87741 -7.44329,19.81795 -15.66745,24.89103 -8.45199,5.21362 -22.3756,6.25502 -30.82611,2.30561 z m 342.02958,1.66021 c -19.32028,-3.31634 -31.12704,-7.58385 -44.18301,-15.96981 -20.4336,-13.12465 -35.30574,-33.71824 -42.00039,-58.15829 -3.21436,-11.73463 -3.22896,-37.38455 -0.028,-49.10753 7.68896,-28.15915 27.68452,-52.32362 53.50552,-64.66098 14.65012,-6.99988 24.57885,-9.171 42.03917,-9.19273 18.58776,-0.0232 27.80952,2.15387 45.33333,10.702 10.79696,5.26677 14.44391,7.97272 24.70687,18.33193 19.96383,20.15104 28.78987,41.15948 28.91249,68.81977 0.0787,17.74444 -2.5464,28.99084 -10.5814,45.33334 -5.26116,10.70074 -8.10132,14.52912 -18.2995,24.66666 -13.92274,13.83995 -27.27295,21.70358 -44.19336,26.0311 -10.2864,2.63081 -28.75975,4.31204 -35.21176,3.20454 z M 345.59887,352.43812 c -6.40132,-2.04842 -16.88088,-12.0147 -19.59058,-18.63106 -3.55843,-8.68868 -3.11514,-19.31511 1.17122,-28.07612 5.81128,-11.87784 16.30279,-18.26753 29.99422,-18.26753 20.90725,0 37.07589,19.94894 32.44145,40.02642 -4.60236,19.93851 -24.47417,31.20179 -44.01631,24.94829 z"
       id="path398" />
  </g>
</svg>
